# xmcd
#
# Track frame offsets:
#	150
#	14057
#	26555
#	42227
#	58970
#	76062
#	93827
#	106825
#	121595
#	137570
#	153928
#	170704
#	186261
#	201536
#	216771
#	231666
#	246506
#	260888
#	274066
#	292113
#	301076
#	316858
#	329775
#
# Disc length: 4569 seconds
#
# Revision: 9
# Processed by: cddbd v1.5.2PL0 Copyright (c) Steve Scherf et al.
# Submitted via: audiograbber 1.83.01
#
DISCID=5d11d717
DTITLE=Campeões do Forró - Volume 3
DYEAR=2003
DGENRE=Forró
TTITLE0=Patricinha  - Forró Saborear
TTITLE1=Desfaz a mala - Calypso
TTITLE2=Veneno - Calcinha Preta
TTITLE3=O encanto - Magnificos
TTITLE4=A rainha e o rei - Noda de caju
TTITLE5=Cara metade - Moleca 100 vergonha
TTITLE6=Além do horizonte - banda líbanos
TTITLE7=Aonde você está - Tropykália
TTITLE8=Amor ou amizade - Gatinha manhosa
TTITLE9=Chuva de paixão - Mulheres perdidas
TTITLE10=Anjo - Garota safada
TTITLE11=Depois das seis - charlys
TTITLE12=Mensagem de amor - Agua de cheiro
TTITLE13=Não é nada disso - Aviões do Forró
TTITLE14=Pode botar - Resposta de Corrinha
TTITLE15=Vira o zóio - Krakes do forró
TTITLE16=Cachorrinho - capital do sol
TTITLE17=Palhaço - Forró Zabumbada
TTITLE18=Me dá um beijo - Dorgival dantas
TTITLE19=Melô do dá da dá - Bakanas do Brega
TTITLE20=Não para não - Billy X
TTITLE21=Eu ainda te amo - Robério dos teclados
TTITLE22=Nem uma noite a mais - Carlos mais
EXTD=Estilo: Forró
EXTT0=
EXTT1=
EXTT2=
EXTT3=
EXTT4=
EXTT5=
EXTT6=
EXTT7=
EXTT8=
EXTT9=
EXTT10=
EXTT11=
EXTT12=
EXTT13=
EXTT14=
EXTT15=
EXTT16=
EXTT17=
EXTT18=
EXTT19=
EXTT20=
EXTT21=
EXTT22=
PLAYORDER=
